# xmcd CD database file
#
# Track frame offsets:
#	150
#	15084
#	25675
#	29791
#	40382
#	50836
#	68837
#	86797
#	106798
#	126096
#
# Disc length: 1978 seconds
#
# Revision: 0
# Processed by: cddbd v1.5.1PL0 Copyright (c) Steve Scherf et al.
# Submitted via: CDex 1.51
#
DISCID=7e07b80a
DTITLE=Dionne Warwick - The Best of Dionne Warwick Live 
DYEAR=2005
DGENRE=Blues
TTITLE0=Don't Make Me Over
TTITLE1=Walk On By
TTITLE2=You'll Never Go To Heaven
TTITLE3=I'll Never Fall In Love Again
TTITLE4=This Girl's In Love With You
TTITLE5=Alfie
TTITLE6=Heartbreaker
TTITLE7=I'll Never Love This Way again
TTITLE8=What The World Needs Now
TTITLE9=That's What Friends Are For
EXTD=YEAR: 2005
EXTT0=
EXTT1=
EXTT2=
EXTT3=
EXTT4=
EXTT5=
EXTT6=
EXTT7=
EXTT8=
EXTT9=
PLAYORDER=
